<mxfile host="app.diagrams.net" modified="2023-10-11T11:59:41.982Z" agent="Mozilla/5.0 (Windows NT 10.0; Win64; x64) AppleWebKit/537.36 (KHTML, like Gecko) Chrome/117.0.0.0 Safari/537.36" etag="1IvFZtp73NGexuP-sfXK" version="22.0.4" type="device">
  <diagram id="C5RBs43oDa-KdzZeNtuy" name="Page-1">
    <mxGraphModel dx="1434" dy="790" grid="1" gridSize="10" guides="1" tooltips="1" connect="1" arrows="1" fold="1" page="1" pageScale="1" pageWidth="827" pageHeight="1169" math="0" shadow="0">
      <root>
        <mxCell id="WIyWlLk6GJQsqaUBKTNV-0" />
        <mxCell id="WIyWlLk6GJQsqaUBKTNV-1" parent="WIyWlLk6GJQsqaUBKTNV-0" />
        <mxCell id="WIyWlLk6GJQsqaUBKTNV-2" value="" style="rounded=0;html=1;jettySize=auto;orthogonalLoop=1;fontSize=11;endArrow=block;endFill=0;endSize=8;strokeWidth=1;shadow=0;labelBackgroundColor=none;edgeStyle=orthogonalEdgeStyle;" parent="WIyWlLk6GJQsqaUBKTNV-1" edge="1">
          <mxGeometry relative="1" as="geometry">
            <mxPoint x="219.5" y="130" as="sourcePoint" />
            <mxPoint x="219.5" y="180" as="targetPoint" />
          </mxGeometry>
        </mxCell>
        <mxCell id="hmrkRFP79I5ws2ojJBxG-0" value="START" style="ellipse;whiteSpace=wrap;html=1;fillColor=#33FF99;" vertex="1" parent="WIyWlLk6GJQsqaUBKTNV-1">
          <mxGeometry x="175" y="70" width="90" height="60" as="geometry" />
        </mxCell>
        <mxCell id="hmrkRFP79I5ws2ojJBxG-1" value="User lenyomja az átváltás gombot" style="rounded=0;whiteSpace=wrap;html=1;fillColor=#FFCC99;" vertex="1" parent="WIyWlLk6GJQsqaUBKTNV-1">
          <mxGeometry x="160" y="180" width="120" height="60" as="geometry" />
        </mxCell>
        <mxCell id="hmrkRFP79I5ws2ojJBxG-4" value="C° -&amp;gt; F° átváltási algoritmus lefut a képlet segítségével" style="rounded=0;whiteSpace=wrap;html=1;fillColor=#FFCC99;" vertex="1" parent="WIyWlLk6GJQsqaUBKTNV-1">
          <mxGeometry x="160" y="410" width="120" height="60" as="geometry" />
        </mxCell>
        <mxCell id="hmrkRFP79I5ws2ojJBxG-8" value="" style="rounded=0;html=1;jettySize=auto;orthogonalLoop=1;fontSize=11;endArrow=block;endFill=0;endSize=8;strokeWidth=1;shadow=0;labelBackgroundColor=none;edgeStyle=orthogonalEdgeStyle;" edge="1" parent="WIyWlLk6GJQsqaUBKTNV-1">
          <mxGeometry x="0.3333" y="20" relative="1" as="geometry">
            <mxPoint as="offset" />
            <mxPoint x="219.5" y="240" as="sourcePoint" />
            <mxPoint x="219.5" y="300" as="targetPoint" />
          </mxGeometry>
        </mxCell>
        <mxCell id="hmrkRFP79I5ws2ojJBxG-9" value="" style="rounded=0;html=1;jettySize=auto;orthogonalLoop=1;fontSize=11;endArrow=block;endFill=0;endSize=8;strokeWidth=1;shadow=0;labelBackgroundColor=none;edgeStyle=orthogonalEdgeStyle;" edge="1" parent="WIyWlLk6GJQsqaUBKTNV-1">
          <mxGeometry x="0.3333" y="20" relative="1" as="geometry">
            <mxPoint as="offset" />
            <mxPoint x="219.5" y="470" as="sourcePoint" />
            <mxPoint x="219.5" y="530" as="targetPoint" />
          </mxGeometry>
        </mxCell>
        <mxCell id="hmrkRFP79I5ws2ojJBxG-11" value="Hőmérsékleti adatok megjelenítése F°-ben" style="strokeWidth=2;html=1;shape=mxgraph.flowchart.display;whiteSpace=wrap;align=center;fillColor=#CCFFFF;" vertex="1" parent="WIyWlLk6GJQsqaUBKTNV-1">
          <mxGeometry x="150" y="530" width="140" height="70" as="geometry" />
        </mxCell>
        <mxCell id="hmrkRFP79I5ws2ojJBxG-13" value="END" style="ellipse;whiteSpace=wrap;html=1;fillColor=#33FF99;" vertex="1" parent="WIyWlLk6GJQsqaUBKTNV-1">
          <mxGeometry x="175" y="660" width="90" height="60" as="geometry" />
        </mxCell>
        <mxCell id="hmrkRFP79I5ws2ojJBxG-16" value="" style="rounded=0;html=1;jettySize=auto;orthogonalLoop=1;fontSize=11;endArrow=block;endFill=0;endSize=8;strokeWidth=1;shadow=0;labelBackgroundColor=none;edgeStyle=orthogonalEdgeStyle;" edge="1" parent="WIyWlLk6GJQsqaUBKTNV-1">
          <mxGeometry x="0.3333" y="20" relative="1" as="geometry">
            <mxPoint as="offset" />
            <mxPoint x="219.5" y="600" as="sourcePoint" />
            <mxPoint x="219.5" y="660" as="targetPoint" />
            <Array as="points">
              <mxPoint x="219.5" y="630" />
              <mxPoint x="219.5" y="630" />
            </Array>
          </mxGeometry>
        </mxCell>
        <mxCell id="hmrkRFP79I5ws2ojJBxG-18" value="C° adatok lekérdezése az adatbázisból" style="shape=parallelogram;html=1;strokeWidth=2;perimeter=parallelogramPerimeter;whiteSpace=wrap;rounded=1;arcSize=12;size=0.23;fillColor=#FF9999;" vertex="1" parent="WIyWlLk6GJQsqaUBKTNV-1">
          <mxGeometry x="165" y="290" width="110" height="60" as="geometry" />
        </mxCell>
        <mxCell id="hmrkRFP79I5ws2ojJBxG-19" value="" style="rounded=0;html=1;jettySize=auto;orthogonalLoop=1;fontSize=11;endArrow=block;endFill=0;endSize=8;strokeWidth=1;shadow=0;labelBackgroundColor=none;edgeStyle=orthogonalEdgeStyle;" edge="1" parent="WIyWlLk6GJQsqaUBKTNV-1">
          <mxGeometry x="0.3333" y="20" relative="1" as="geometry">
            <mxPoint as="offset" />
            <mxPoint x="219.5" y="350" as="sourcePoint" />
            <mxPoint x="219.5" y="410" as="targetPoint" />
          </mxGeometry>
        </mxCell>
        <mxCell id="hmrkRFP79I5ws2ojJBxG-20" value="" style="rounded=0;html=1;jettySize=auto;orthogonalLoop=1;fontSize=11;endArrow=block;endFill=0;endSize=8;strokeWidth=1;shadow=0;labelBackgroundColor=none;edgeStyle=orthogonalEdgeStyle;" edge="1" parent="WIyWlLk6GJQsqaUBKTNV-1">
          <mxGeometry relative="1" as="geometry">
            <mxPoint x="569.5" y="130" as="sourcePoint" />
            <mxPoint x="569.5" y="180" as="targetPoint" />
          </mxGeometry>
        </mxCell>
        <mxCell id="hmrkRFP79I5ws2ojJBxG-21" value="START" style="ellipse;whiteSpace=wrap;html=1;fillColor=#33FF99;" vertex="1" parent="WIyWlLk6GJQsqaUBKTNV-1">
          <mxGeometry x="525" y="70" width="90" height="60" as="geometry" />
        </mxCell>
        <mxCell id="hmrkRFP79I5ws2ojJBxG-22" value="User lenyomja az átváltás gombot" style="rounded=0;whiteSpace=wrap;html=1;fillColor=#FFCC99;" vertex="1" parent="WIyWlLk6GJQsqaUBKTNV-1">
          <mxGeometry x="510" y="180" width="120" height="60" as="geometry" />
        </mxCell>
        <mxCell id="hmrkRFP79I5ws2ojJBxG-24" value="" style="rounded=0;html=1;jettySize=auto;orthogonalLoop=1;fontSize=11;endArrow=block;endFill=0;endSize=8;strokeWidth=1;shadow=0;labelBackgroundColor=none;edgeStyle=orthogonalEdgeStyle;" edge="1" parent="WIyWlLk6GJQsqaUBKTNV-1">
          <mxGeometry x="0.3333" y="20" relative="1" as="geometry">
            <mxPoint as="offset" />
            <mxPoint x="569.5" y="240" as="sourcePoint" />
            <mxPoint x="569.5" y="300" as="targetPoint" />
          </mxGeometry>
        </mxCell>
        <mxCell id="hmrkRFP79I5ws2ojJBxG-25" value="" style="rounded=0;html=1;jettySize=auto;orthogonalLoop=1;fontSize=11;endArrow=block;endFill=0;endSize=8;strokeWidth=1;shadow=0;labelBackgroundColor=none;edgeStyle=orthogonalEdgeStyle;" edge="1" parent="WIyWlLk6GJQsqaUBKTNV-1">
          <mxGeometry x="0.3333" y="20" relative="1" as="geometry">
            <mxPoint as="offset" />
            <mxPoint x="569.5" y="470" as="sourcePoint" />
            <mxPoint x="569.5" y="530" as="targetPoint" />
          </mxGeometry>
        </mxCell>
        <mxCell id="hmrkRFP79I5ws2ojJBxG-26" value="Hőmérsékleti adatok megjelenítése C°-ben" style="strokeWidth=2;html=1;shape=mxgraph.flowchart.display;whiteSpace=wrap;align=center;fillColor=#CCFFFF;" vertex="1" parent="WIyWlLk6GJQsqaUBKTNV-1">
          <mxGeometry x="490" y="410" width="140" height="70" as="geometry" />
        </mxCell>
        <mxCell id="hmrkRFP79I5ws2ojJBxG-27" value="END" style="ellipse;whiteSpace=wrap;html=1;fillColor=#33FF99;" vertex="1" parent="WIyWlLk6GJQsqaUBKTNV-1">
          <mxGeometry x="525" y="530" width="90" height="60" as="geometry" />
        </mxCell>
        <mxCell id="hmrkRFP79I5ws2ojJBxG-29" value="C° adatok lekérdezése az adatbázisból" style="shape=parallelogram;html=1;strokeWidth=2;perimeter=parallelogramPerimeter;whiteSpace=wrap;rounded=1;arcSize=12;size=0.23;fillColor=#FF9999;" vertex="1" parent="WIyWlLk6GJQsqaUBKTNV-1">
          <mxGeometry x="515" y="290" width="110" height="60" as="geometry" />
        </mxCell>
        <mxCell id="hmrkRFP79I5ws2ojJBxG-30" value="" style="rounded=0;html=1;jettySize=auto;orthogonalLoop=1;fontSize=11;endArrow=block;endFill=0;endSize=8;strokeWidth=1;shadow=0;labelBackgroundColor=none;edgeStyle=orthogonalEdgeStyle;" edge="1" parent="WIyWlLk6GJQsqaUBKTNV-1">
          <mxGeometry x="0.3333" y="20" relative="1" as="geometry">
            <mxPoint as="offset" />
            <mxPoint x="569.5" y="350" as="sourcePoint" />
            <mxPoint x="569.5" y="410" as="targetPoint" />
          </mxGeometry>
        </mxCell>
        <mxCell id="hmrkRFP79I5ws2ojJBxG-33" value="&lt;font style=&quot;font-size: 21px;&quot;&gt;C°&lt;/font&gt;" style="text;html=1;align=center;verticalAlign=middle;resizable=0;points=[];autosize=1;strokeColor=none;fillColor=none;" vertex="1" parent="WIyWlLk6GJQsqaUBKTNV-1">
          <mxGeometry x="160" y="20" width="50" height="40" as="geometry" />
        </mxCell>
        <mxCell id="hmrkRFP79I5ws2ojJBxG-34" value="&lt;font style=&quot;font-size: 21px;&quot;&gt;F°&lt;/font&gt;" style="text;html=1;align=center;verticalAlign=middle;resizable=0;points=[];autosize=1;strokeColor=none;fillColor=none;" vertex="1" parent="WIyWlLk6GJQsqaUBKTNV-1">
          <mxGeometry x="245" y="20" width="40" height="40" as="geometry" />
        </mxCell>
        <mxCell id="hmrkRFP79I5ws2ojJBxG-37" value="&lt;font style=&quot;font-size: 21px;&quot;&gt;F°&lt;/font&gt;" style="text;html=1;align=center;verticalAlign=middle;resizable=0;points=[];autosize=1;strokeColor=none;fillColor=none;" vertex="1" parent="WIyWlLk6GJQsqaUBKTNV-1">
          <mxGeometry x="512.5" y="20" width="40" height="40" as="geometry" />
        </mxCell>
        <mxCell id="hmrkRFP79I5ws2ojJBxG-38" value="&lt;font style=&quot;font-size: 21px;&quot;&gt;C°&lt;/font&gt;" style="text;html=1;align=center;verticalAlign=middle;resizable=0;points=[];autosize=1;strokeColor=none;fillColor=none;" vertex="1" parent="WIyWlLk6GJQsqaUBKTNV-1">
          <mxGeometry x="587.5" y="20" width="50" height="40" as="geometry" />
        </mxCell>
        <mxCell id="hmrkRFP79I5ws2ojJBxG-40" value="" style="shape=flexArrow;endArrow=classic;html=1;rounded=0;fillColor=#d80073;strokeColor=#A50040;" edge="1" parent="WIyWlLk6GJQsqaUBKTNV-1">
          <mxGeometry width="50" height="50" relative="1" as="geometry">
            <mxPoint x="545" y="39.5" as="sourcePoint" />
            <mxPoint x="595" y="39.5" as="targetPoint" />
          </mxGeometry>
        </mxCell>
        <mxCell id="hmrkRFP79I5ws2ojJBxG-43" value="" style="shape=flexArrow;endArrow=classic;html=1;rounded=0;fillColor=#d80073;strokeColor=#A50040;" edge="1" parent="WIyWlLk6GJQsqaUBKTNV-1">
          <mxGeometry width="50" height="50" relative="1" as="geometry">
            <mxPoint x="200" y="39.5" as="sourcePoint" />
            <mxPoint x="250" y="39.5" as="targetPoint" />
          </mxGeometry>
        </mxCell>
      </root>
    </mxGraphModel>
  </diagram>
</mxfile>
